<svg width="1200" height="660" viewBox="0 0 1200 660" fill="none" xmlns="http://www.w3.org/2000/svg">
  <rect width="1200" height="660" rx="44" fill="#06101B"/>
  <rect x="48" y="48" width="1104" height="564" rx="36" fill="white" fill-opacity="0.04" stroke="white" stroke-opacity="0.08"/>
  <circle cx="220" cy="130" r="120" fill="#7C3AED" fill-opacity="0.16"/>
  <circle cx="1000" cy="122" r="150" fill="#00FFFF" fill-opacity="0.11"/>
  <circle cx="940" cy="508" r="150" fill="#14F195" fill-opacity="0.10"/>
  <rect x="92" y="92" width="344" height="132" rx="24" fill="#081522" stroke="#2DD4BF" stroke-opacity="0.20"/>
  <rect x="464" y="92" width="628" height="132" rx="24" fill="#081522" stroke="#8B5CF6" stroke-opacity="0.18"/>
  <rect x="92" y="256" width="320" height="292" rx="28" fill="#081522" stroke="white" stroke-opacity="0.08"/>
  <rect x="436" y="256" width="656" height="292" rx="28" fill="#081522" stroke="white" stroke-opacity="0.08"/>
  <text x="122" y="132" fill="white" font-family="Inter, Arial" font-size="24" font-weight="700">Billing Management Dashboard</text>
  <text x="122" y="164" fill="#94A3B8" font-family="Inter, Arial" font-size="18">Invoice handling, payment status, and admin controls</text>
  <rect x="122" y="178" width="146" height="20" rx="10" fill="#00FFFF" fill-opacity="0.14"/>
  <rect x="122" y="292" width="248" height="50" rx="14" fill="#00FFFF" fill-opacity="0.10"/>
  <rect x="122" y="356" width="248" height="50" rx="14" fill="white" fill-opacity="0.05"/>
  <rect x="122" y="420" width="248" height="50" rx="14" fill="white" fill-opacity="0.05"/>
  <rect x="122" y="484" width="248" height="50" rx="14" fill="white" fill-opacity="0.05"/>
  <rect x="470" y="294" width="586" height="78" rx="20" fill="#00FFFF" fill-opacity="0.10"/>
  <rect x="470" y="388" width="286" height="118" rx="20" fill="#0B1728" stroke="white" stroke-opacity="0.06"/>
  <rect x="770" y="388" width="286" height="118" rx="20" fill="#0B1728" stroke="white" stroke-opacity="0.06"/>
  <text x="500" y="338" fill="white" font-family="Inter, Arial" font-size="22" font-weight="700">Invoice Queue</text>
  <text x="500" y="434" fill="white" font-family="Inter, Arial" font-size="22" font-weight="700">Payments</text>
  <text x="800" y="434" fill="white" font-family="Inter, Arial" font-size="22" font-weight="700">Admin Panel</text>
  <path d="M520 470H718" stroke="#00FFFF" stroke-opacity="0.38" stroke-width="4" stroke-linecap="round"/>
  <path d="M520 500H682" stroke="#94A3B8" stroke-opacity="0.24" stroke-width="4" stroke-linecap="round"/>
  <path d="M814 470H990" stroke="#00FFFF" stroke-opacity="0.38" stroke-width="4" stroke-linecap="round"/>
  <path d="M814 500H950" stroke="#94A3B8" stroke-opacity="0.24" stroke-width="4" stroke-linecap="round"/>
</svg>
