<svg width="1200" height="660" viewBox="0 0 1200 660" fill="none" xmlns="http://www.w3.org/2000/svg">
  <rect width="1200" height="660" rx="44" fill="#07111F"/>
  <rect x="48" y="48" width="1104" height="564" rx="36" fill="white" fill-opacity="0.04" stroke="white" stroke-opacity="0.08"/>
  <circle cx="180" cy="126" r="116" fill="#7C3AED" fill-opacity="0.14"/>
  <circle cx="1030" cy="118" r="150" fill="#00FFFF" fill-opacity="0.11"/>
  <circle cx="965" cy="520" r="150" fill="#14F195" fill-opacity="0.10"/>
  <rect x="92" y="92" width="360" height="132" rx="24" fill="#081522" stroke="#2DD4BF" stroke-opacity="0.20"/>
  <rect x="484" y="92" width="608" height="132" rx="24" fill="#081522" stroke="#8B5CF6" stroke-opacity="0.18"/>
  <rect x="92" y="256" width="326" height="292" rx="28" fill="#081522" stroke="white" stroke-opacity="0.08"/>
  <rect x="442" y="256" width="650" height="292" rx="28" fill="#081522" stroke="white" stroke-opacity="0.08"/>
  <text x="122" y="132" fill="white" font-family="Inter, Arial" font-size="24" font-weight="700">Online Learning Dashboard</text>
  <text x="122" y="164" fill="#94A3B8" font-family="Inter, Arial" font-size="18">Courses, progress, and role-based access</text>
  <rect x="122" y="178" width="154" height="20" rx="10" fill="#00FFFF" fill-opacity="0.14"/>
  <rect x="122" y="290" width="260" height="46" rx="14" fill="#00FFFF" fill-opacity="0.11"/>
  <rect x="122" y="350" width="260" height="46" rx="14" fill="white" fill-opacity="0.05"/>
  <rect x="122" y="410" width="260" height="46" rx="14" fill="white" fill-opacity="0.05"/>
  <rect x="122" y="470" width="260" height="46" rx="14" fill="white" fill-opacity="0.05"/>
  <path d="M474 338H1050" stroke="#00FFFF" stroke-opacity="0.34" stroke-width="4" stroke-linecap="round"/>
  <path d="M474 386H960" stroke="#94A3B8" stroke-opacity="0.24" stroke-width="4" stroke-linecap="round"/>
  <path d="M474 434H1020" stroke="#94A3B8" stroke-opacity="0.24" stroke-width="4" stroke-linecap="round"/>
  <rect x="474" y="290" width="176" height="84" rx="18" fill="#00FFFF" fill-opacity="0.10"/>
  <rect x="668" y="290" width="176" height="84" rx="18" fill="#7C3AED" fill-opacity="0.12"/>
  <rect x="862" y="290" width="182" height="84" rx="18" fill="#14F195" fill-opacity="0.10"/>
  <rect x="474" y="396" width="570" height="92" rx="20" fill="#0B1728" stroke="white" stroke-opacity="0.06"/>
  <circle cx="994" cy="332" r="48" fill="#7C3AED" fill-opacity="0.18"/>
  <path d="M976 332L989 346L1018 316" stroke="#14F195" stroke-width="8" stroke-linecap="round" stroke-linejoin="round"/>
  <text x="500" y="340" fill="white" font-family="Inter, Arial" font-size="22" font-weight="700">Course Management</text>
  <text x="694" y="340" fill="white" font-family="Inter, Arial" font-size="22" font-weight="700">Student Progress</text>
  <text x="888" y="340" fill="white" font-family="Inter, Arial" font-size="22" font-weight="700">Admin Tools</text>
  <text x="500" y="452" fill="#94A3B8" font-family="Inter, Arial" font-size="18">Modular LMS interface for classrooms and content workflows</text>
</svg>
