<svg width="1200" height="800" viewBox="0 0 1200 800" fill="none" xmlns="http://www.w3.org/2000/svg">
  <rect width="1200" height="800" rx="48" fill="url(#paint0_linear)" />
  <circle cx="970" cy="150" r="150" fill="#38BDF8" fill-opacity="0.16" />
  <circle cx="250" cy="640" r="180" fill="#10B981" fill-opacity="0.14" />
  <rect x="120" y="150" width="960" height="500" rx="36" fill="#071022" fill-opacity="0.86" stroke="white" stroke-opacity="0.08" />
  <rect x="160" y="190" width="880" height="420" rx="28" fill="url(#paint1_linear)" />
  <path d="M160 430C260 370 360 340 470 355C575 370 672 440 785 438C879 437 960 405 1040 370V610H160V430Z" fill="#0EA5E9" fill-opacity="0.18" />
  <path d="M160 470C250 430 344 400 450 410C560 421 668 486 776 488C875 490 962 452 1040 420V610H160V470Z" fill="#34D399" fill-opacity="0.14" />
  <rect x="210" y="260" width="230" height="260" rx="20" fill="#0F172A" fill-opacity="0.92" />
  <rect x="250" y="220" width="150" height="90" rx="18" fill="#38BDF8" fill-opacity="0.18" stroke="#7DD3FC" stroke-opacity="0.45" />
  <rect x="252" y="328" width="46" height="46" rx="10" fill="#38BDF8" fill-opacity="0.3" />
  <rect x="312" y="328" width="46" height="46" rx="10" fill="#38BDF8" fill-opacity="0.3" />
  <rect x="372" y="328" width="46" height="46" rx="10" fill="#38BDF8" fill-opacity="0.3" />
  <rect x="252" y="388" width="46" height="46" rx="10" fill="#34D399" fill-opacity="0.24" />
  <rect x="312" y="388" width="46" height="46" rx="10" fill="#34D399" fill-opacity="0.24" />
  <rect x="372" y="388" width="46" height="46" rx="10" fill="#34D399" fill-opacity="0.24" />
  <rect x="590" y="250" width="400" height="290" rx="26" fill="#0B1220" fill-opacity="0.9" stroke="white" stroke-opacity="0.06" />
  <rect x="628" y="284" width="324" height="16" rx="8" fill="white" fill-opacity="0.14" />
  <rect x="628" y="320" width="260" height="16" rx="8" fill="white" fill-opacity="0.12" />
  <rect x="628" y="356" width="292" height="16" rx="8" fill="white" fill-opacity="0.12" />
  <rect x="628" y="392" width="220" height="16" rx="8" fill="white" fill-opacity="0.12" />
  <rect x="628" y="440" width="140" height="54" rx="18" fill="#38BDF8" fill-opacity="0.18" stroke="#7DD3FC" stroke-opacity="0.3" />
  <rect x="786" y="440" width="140" height="54" rx="18" fill="#34D399" fill-opacity="0.16" stroke="#6EE7B7" stroke-opacity="0.28" />
  <circle cx="935" cy="510" r="56" fill="#38BDF8" fill-opacity="0.12" />
  <path d="M935 470L951 506H919L935 470Z" fill="#E0F2FE" fill-opacity="0.8" />
  <rect x="120" y="660" width="960" height="64" rx="32" fill="#050816" fill-opacity="0.65" />
  <text x="600" y="704" fill="white" fill-opacity="0.92" font-family="Inter, Arial" font-size="34" font-weight="700" text-anchor="middle">Ocean View Resort</text>
  <defs>
    <linearGradient id="paint0_linear" x1="0" y1="0" x2="1200" y2="800" gradientUnits="userSpaceOnUse">
      <stop stop-color="#030712" />
      <stop offset="0.55" stop-color="#071022" />
      <stop offset="1" stop-color="#020617" />
    </linearGradient>
    <linearGradient id="paint1_linear" x1="160" y1="190" x2="1040" y2="610" gradientUnits="userSpaceOnUse">
      <stop stop-color="#0B1220" />
      <stop offset="1" stop-color="#111827" />
    </linearGradient>
  </defs>
</svg>
