<svg width="1200" height="660" viewBox="0 0 1200 660" fill="none" xmlns="http://www.w3.org/2000/svg">
  <rect width="1200" height="660" rx="44" fill="#06101E"/>
  <rect x="48" y="48" width="1104" height="564" rx="36" fill="white" fill-opacity="0.04" stroke="white" stroke-opacity="0.08"/>
  <circle cx="180" cy="130" r="120" fill="#00FFFF" fill-opacity="0.10"/>
  <circle cx="1010" cy="120" r="180" fill="#7C3AED" fill-opacity="0.14"/>
  <circle cx="930" cy="500" r="160" fill="#14F195" fill-opacity="0.10"/>
  <rect x="92" y="92" width="320" height="132" rx="24" fill="#081522" stroke="#2DD4BF" stroke-opacity="0.20"/>
  <rect x="440" y="92" width="652" height="132" rx="24" fill="#081522" stroke="#8B5CF6" stroke-opacity="0.18"/>
  <rect x="92" y="256" width="470" height="292" rx="28" fill="#081522" stroke="white" stroke-opacity="0.08"/>
  <rect x="590" y="256" width="502" height="292" rx="28" fill="#081522" stroke="white" stroke-opacity="0.08"/>
  <text x="122" y="132" fill="white" font-family="Inter, Arial" font-size="24" font-weight="700">Real Estate Analytics</text>
  <text x="122" y="164" fill="#94A3B8" font-family="Inter, Arial" font-size="18">Market signals, pricing trends, and forecast inputs</text>
  <rect x="122" y="178" width="188" height="20" rx="10" fill="#00FFFF" fill-opacity="0.14"/>
  <path d="M148 474L214 420L280 442L350 364L424 390L482 316" stroke="url(#g1)" stroke-width="8" stroke-linecap="round" stroke-linejoin="round"/>
  <path d="M148 500C186 476 214 420 280 442C346 464 350 364 424 390C474 410 456 332 482 316" stroke="#14F195" stroke-opacity="0.55" stroke-width="3" stroke-dasharray="12 16"/>
  <circle cx="214" cy="420" r="8" fill="#00FFFF"/>
  <circle cx="350" cy="364" r="8" fill="#7C3AED"/>
  <circle cx="482" cy="316" r="8" fill="#14F195"/>
  <rect x="626" y="290" width="202" height="80" rx="18" fill="#00FFFF" fill-opacity="0.10"/>
  <rect x="846" y="290" width="214" height="80" rx="18" fill="#7C3AED" fill-opacity="0.12"/>
  <rect x="626" y="388" width="434" height="126" rx="20" fill="#0B1728" stroke="white" stroke-opacity="0.06"/>
  <rect x="122" y="278" width="182" height="54" rx="16" fill="#0B1728" stroke="white" stroke-opacity="0.06"/>
  <rect x="320" y="278" width="210" height="54" rx="16" fill="#0B1728" stroke="white" stroke-opacity="0.06"/>
  <rect x="122" y="350" width="182" height="54" rx="16" fill="#0B1728" stroke="white" stroke-opacity="0.06"/>
  <rect x="320" y="350" width="210" height="54" rx="16" fill="#0B1728" stroke="white" stroke-opacity="0.06"/>
  <text x="646" y="338" fill="white" font-family="Inter, Arial" font-size="22" font-weight="700">Predicted Value</text>
  <text x="866" y="338" fill="white" font-family="Inter, Arial" font-size="22" font-weight="700">Model Accuracy</text>
  <text x="646" y="472" fill="#94A3B8" font-family="Inter, Arial" font-size="18">Interactive property valuation with clean forecasting UI</text>
  <path d="M640 460H1036" stroke="#00FFFF" stroke-opacity="0.35" stroke-width="4" stroke-linecap="round"/>
  <path d="M640 500H940" stroke="#94A3B8" stroke-opacity="0.25" stroke-width="4" stroke-linecap="round"/>
  <defs>
    <linearGradient id="g1" x1="148" y1="500" x2="482" y2="316" gradientUnits="userSpaceOnUse">
      <stop stop-color="#00FFFF"/>
      <stop offset="0.6" stop-color="#14F195"/>
      <stop offset="1" stop-color="#7C3AED"/>
    </linearGradient>
  </defs>
</svg>
