<svg width="1200" height="800" viewBox="0 0 1200 800" fill="none" xmlns="http://www.w3.org/2000/svg">
  <rect width="1200" height="800" rx="48" fill="#071022"/>
  <circle cx="220" cy="160" r="180" fill="#00FFFF" fill-opacity="0.12"/>
  <circle cx="980" cy="120" r="220" fill="#7C3AED" fill-opacity="0.14"/>
  <circle cx="910" cy="640" r="180" fill="#14F195" fill-opacity="0.12"/>
  <path d="M230 590C320 470 400 470 510 370C620 270 710 240 950 160" stroke="url(#g1)" stroke-width="10" stroke-linecap="round"/>
  <path d="M250 635C360 520 430 530 560 420C690 310 770 280 980 210" stroke="url(#g2)" stroke-width="4" stroke-linecap="round" stroke-dasharray="10 18"/>
  <rect x="110" y="590" width="370" height="150" rx="30" fill="white" fill-opacity="0.05" stroke="white" stroke-opacity="0.1"/>
  <rect x="110" y="590" width="370" height="150" rx="30" fill="url(#g3)" fill-opacity="0.25"/>
  <text x="150" y="645" fill="white" font-family="Inter, Arial" font-size="34" font-weight="700">Plant Health AI</text>
  <text x="150" y="687" fill="#94A3B8" font-family="Inter, Arial" font-size="20">Random Forest Classification</text>
  <defs>
    <linearGradient id="g1" x1="230" y1="590" x2="950" y2="160" gradientUnits="userSpaceOnUse">
      <stop stop-color="#00FFFF"/>
      <stop offset="1" stop-color="#7C3AED"/>
    </linearGradient>
    <linearGradient id="g2" x1="250" y1="635" x2="980" y2="210" gradientUnits="userSpaceOnUse">
      <stop stop-color="#14F195"/>
      <stop offset="1" stop-color="#00FFFF"/>
    </linearGradient>
    <linearGradient id="g3" x1="110" y1="590" x2="480" y2="740" gradientUnits="userSpaceOnUse">
      <stop stop-color="#00FFFF" stop-opacity="0.45"/>
      <stop offset="1" stop-color="#7C3AED" stop-opacity="0.1"/>
    </linearGradient>
  </defs>
</svg>

