<svg width="1200" height="1200" viewBox="0 0 1200 1200" fill="none" xmlns="http://www.w3.org/2000/svg">
  <rect width="1200" height="1200" rx="96" fill="#050816"/>
  <circle cx="600" cy="450" r="220" fill="#00FFFF" fill-opacity="0.14"/>
  <circle cx="840" cy="360" r="180" fill="#7C3AED" fill-opacity="0.14"/>
  <circle cx="430" cy="760" r="220" fill="#14F195" fill-opacity="0.12"/>
  <rect x="280" y="260" width="640" height="680" rx="70" fill="white" fill-opacity="0.06" stroke="white" stroke-opacity="0.1"/>
  <circle cx="600" cy="500" r="150" fill="white" fill-opacity="0.08" stroke="white" stroke-opacity="0.12"/>
  <path d="M510 710C540 650 565 620 600 620C635 620 660 650 690 710" stroke="#00FFFF" stroke-width="18" stroke-linecap="round"/>
  <circle cx="550" cy="490" r="18" fill="#00FFFF"/>
  <circle cx="650" cy="490" r="18" fill="#14F195"/>
  <path d="M530 430C555 410 580 400 600 400C620 400 645 410 670 430" stroke="#7C3AED" stroke-width="14" stroke-linecap="round"/>
  <text x="600" y="980" fill="white" text-anchor="middle" font-family="Inter, Arial" font-size="56" font-weight="700">SHABEEHA</text>
  <text x="600" y="1040" fill="#94A3B8" text-anchor="middle" font-family="Inter, Arial" font-size="28">Software Engineer</text>
</svg>
